<?xml version="1.0" encoding="UTF-8"?>
<svg xmlns="http://www.w3.org/2000/svg" version="1.1" viewBox="0 0 640 640">
  <defs>
    <style>
      .cls-1 {
        fill: none;
      }
    </style>
  </defs>
  <!-- Generator: Adobe Illustrator 28.7.1, SVG Export Plug-In . SVG Version: 1.2.0 Build 142)  -->
  <g>
    <g id="Layer_1">
      <g>
        <circle cx="131" cy="228" r="25"/>
        <rect x="116" y="285" width="30" height="272"/>
        <rect x="110" y="265" width="42" height="20"/>
        <rect x="99.2" y="545.8" width="63.5" height="22.5"/>
      </g>
      <g>
        <circle cx="510" cy="228" r="25"/>
        <rect x="495" y="285" width="30" height="272"/>
        <rect x="489" y="265" width="42" height="20"/>
        <rect x="478.2" y="545.8" width="63.5" height="22.5"/>
      </g>
      <polygon points="339.4 567.5 223.4 567.5 248.6 488 364.6 488 339.4 567.5"/>
      <polygon points="307.6 567.5 423.6 567.5 398.4 488 282.4 488 307.6 567.5"/>
      <line class="cls-1" x1="258" y1="568.2" x2="228" y2="568.2"/>
      <line class="cls-1" x1="215.6" y1="581.1" x2="286.4" y2="510.4"/>
      <path class="cls-1" d="M258,244"/>
    </g>
  </g>
</svg>